<svg width="731" height="901" viewBox="0 0 731 901" fill="none" xmlns="http://www.w3.org/2000/svg">
<path opacity="0.07" d="M730.5 453.5C717.8 446.1 708.6 445.9 702.9 452.9C697.2 459.8 694.4 471.5 694.4 488V576.9C694.4 593.8 692.8 607.8 689.7 618.9C686.6 630.4 681.3 638.6 674 643.4C666.9 648.3 657.3 649.6 645.1 647.3C633.2 645.1 618.3 638.9 600.5 628.6L592 623.7V553.7L602.6 559.8C615.3 567.2 623.8 568.1 628.1 562.7C632.6 557.5 634.9 546.6 634.9 530.1V451.8C634.9 431.4 636.9 415.3 640.9 403.4C644.9 391.5 652.8 384 664.7 380.6C652.8 363.5 644.9 346.8 640.9 330.4C636.9 314 635 295.6 635 275.2V196.9C635 180.4 632.7 167 628.2 156.5C624 146.2 615.5 137.4 602.7 130L592.1 123.9V53.9L600.6 58.8C618.4 69.1 633.3 80 645.2 91.6C657.4 103.3 667 115.8 674.1 128.9C681.5 142.2 686.7 156.4 689.8 171.5C692.9 186.2 694.5 202.1 694.5 218.9V307.8C694.5 324.3 697.3 339.3 703 352.7C708.7 366.2 717.9 376.6 730.6 383.9L730.5 453.5Z" fill="url(#paint0_linear)"/>
<path opacity="0.07" d="M408 196C420.7 203.4 429.9 203.6 435.6 196.6C441.3 189.7 444.1 178 444.1 161.5V72.6C444.1 55.7 445.7 41.7 448.8 30.6C451.9 19.1 457 10.8 464.1 5.9C471.5 1.1 481.1 -0.199997 493 2C505.2 4.3 520.2 10.6 538 20.9L546.5 25.8V95.8L535.9 89.7C523.2 82.3 514.5 81.3 510 86.5C505.8 91.9 503.6 102.8 503.6 119.3V197.6C503.6 218 501.6 234.1 497.6 246C493.6 257.8 485.7 265.4 473.8 268.8C485.7 285.9 493.6 302.6 497.6 319C501.6 335.4 503.5 353.8 503.5 374.2V452.5C503.5 469 505.6 482.4 509.9 492.7C514.4 503.2 523.1 512.1 535.8 519.4L546.4 525.5V595.5L537.9 590.6C520.1 580.3 505.1 569.3 492.9 557.6C481 546 471.4 533.6 464 520.3C456.9 507.2 451.8 493.1 448.7 477.9C445.6 463.2 444 447.3 444 430.5V341.6C444 325.1 441.2 310.1 435.5 296.7C429.8 283.2 420.6 272.8 407.9 265.5L408 196Z" fill="url(#paint1_linear)"/>
<path opacity="0.4" d="M690.5 483.5C677.8 476.1 668.6 475.9 662.9 482.9C657.2 489.8 654.4 501.5 654.4 518V606.9C654.4 623.8 652.8 637.8 649.7 648.9C646.6 660.4 641.3 668.6 634 673.4C626.9 678.3 617.3 679.6 605.1 677.3C593.2 675.1 578.3 668.9 560.5 658.6L552 653.7V583.7L562.6 589.8C575.3 597.2 583.8 598.1 588.1 592.7C592.6 587.5 594.9 576.6 594.9 560.1V481.8C594.9 461.4 596.9 445.3 600.9 433.4C604.9 421.5 612.8 414 624.7 410.6C612.8 393.5 604.9 376.8 600.9 360.4C596.9 344 595 325.6 595 305.2V226.9C595 210.4 592.7 197 588.2 186.5C584 176.2 575.5 167.4 562.7 160L552.1 153.9V83.9L560.6 88.8C578.4 99.1 593.3 110 605.2 121.6C617.4 133.3 627 145.8 634.1 158.9C641.5 172.2 646.7 186.4 649.8 201.5C652.9 216.2 654.5 232.1 654.5 248.9V337.8C654.5 354.3 657.3 369.3 663 382.7C668.7 396.2 677.9 406.6 690.6 413.9L690.5 483.5Z" fill="url(#paint2_linear)"/>
<path opacity="0.4" d="M368 226C380.7 233.4 389.9 233.6 395.6 226.6C401.3 219.7 404.1 208 404.1 191.5V102.6C404.1 85.7 405.7 71.7 408.8 60.6C411.9 49.1 417 40.8 424.1 35.9C431.5 31.1 441.1 29.8 453 32C465.2 34.3 480.2 40.6 498 50.9L506.5 55.8V125.8L495.9 119.7C483.2 112.3 474.5 111.3 470 116.5C465.8 121.9 463.6 132.8 463.6 149.3V227.6C463.6 248 461.6 264.1 457.6 276C453.6 287.8 445.7 295.4 433.8 298.8C445.7 315.9 453.6 332.6 457.6 349C461.6 365.4 463.5 383.8 463.5 404.2V482.5C463.5 499 465.6 512.4 469.9 522.7C474.4 533.2 483.1 542.1 495.8 549.4L506.4 555.5V625.5L497.9 620.6C480.1 610.3 465.1 599.3 452.9 587.6C441 576 431.4 563.6 424 550.3C416.9 537.2 411.8 523.1 408.7 507.9C405.6 493.2 404 477.3 404 460.5V371.6C404 355.1 401.2 340.1 395.5 326.7C389.8 313.2 380.6 302.8 367.9 295.5L368 226Z" fill="url(#paint3_linear)"/>
<path opacity="0.15" d="M146 13.2L316.9 111.9L316.8 521.2L145.9 422.5L146 13.2Z" fill="url(#paint4_linear)"/>
<path d="M113.9 76.1L249.8 154.6V192.3L113.9 113.8V76.1Z" fill="#F2C94C"/>
<path opacity="0.15" d="M167.1 239.7L297.7 315.1V373.7L167.1 298.3V239.7Z" fill="white"/>
<path opacity="0.15" d="M167 168.8L297.8 244.3V257.9L167 182.5V168.8Z" fill="white"/>
<path opacity="0.15" d="M167 195.4L280.1 260.7V274.3L167 209V195.4Z" fill="white"/>
<path opacity="0.2" d="M146 13.2L316.9 111.9V166.8L146 68.1V13.2Z" fill="url(#paint5_linear)"/>
<path opacity="0.2" d="M188.7 65.6C188.7 73.9 183.8 77.8 177.8 74.4C171.8 70.9 167 61.4 167 53.1C167 44.8 171.9 40.9 177.9 44.3C183.8 47.8 188.7 57.3 188.7 65.6Z" fill="white"/>
<path opacity="0.15" d="M356 392.7L526.9 491.4L526.8 900.7L355.9 802L356 392.7Z" fill="url(#paint6_linear)"/>
<path d="M421.1 511.8L557 590.2V627.8L421 549.4L421.1 511.8Z" fill="#F2994A"/>
<path opacity="0.15" d="M377.1 550.7L507.8 626.2V684.7L377.1 609.2V550.7Z" fill="white"/>
<path opacity="0.15" d="M376.9 634.3L507.7 709.8V723.4L376.9 648V634.3Z" fill="white"/>
<path opacity="0.15" d="M376.9 658.9L490 724.2V737.8L376.9 672.5V658.9Z" fill="white"/>
<path opacity="0.2" d="M356 392.7L526.9 491.4V546.3L356 447.6V392.7Z" fill="url(#paint7_linear)"/>
<path opacity="0.2" d="M398.7 445.2C398.7 453.5 393.8 457.4 387.8 454C381.8 450.5 377 441 377 432.7C377 424.4 381.9 420.5 387.9 423.9C393.8 427.3 398.7 436.9 398.7 445.2Z" fill="white"/>
<path opacity="0.3" d="M326.4 449.4L28.8999 277.7L28.9999 432.8L300.3 589.4L326.6 628.3L326.4 449.4Z" fill="url(#paint8_linear)"/>
<path opacity="0.15" d="M249.9 443L184.7 405.4V419L249.9 456.6V443Z" fill="white"/>
<path opacity="0.15" d="M249.9 470.3L88.5 377.1V390.7L250 483.9L249.9 470.3Z" fill="white"/>
<path opacity="0.15" d="M250 497.6L55.1001 385.1V398.7L250 511.2V497.6Z" fill="white"/>
<path d="M266 466.5C266 479.3 273.6 494 282.9 499.4C292.2 504.8 299.8 498.8 299.8 486C299.8 473.2 292.2 458.5 282.9 453.1C273.5 447.7 266 453.7 266 466.5Z" fill="#F2994A"/>
<path opacity="0.15" d="M58.2999 168.8L18.8999 146V132.7L58.2999 155.5C61.4999 157.4 66.1999 161.1 70.1999 166.9C74.4999 173.1 77.5999 180.9 77.5999 189.4C77.5999 198.8 75.1999 204.1 70.6999 205.7C66.3999 207.1 61.3999 204.7 58.2999 202.9L42.0999 193.5L41.9999 193.4C40.5999 192.6 38.3999 191.8 36.6999 192.3C35.2999 192.7 33.5999 194.2 33.5999 199.4C33.5999 204.6 35.1999 207.8 36.5999 209.7C38.2999 212.1 40.4999 213.8 41.8999 214.5L42.0999 214.6L91.6999 243.2V256.5L42.3999 228C38.9999 226.2 34.0999 222.5 29.8999 216.6C25.2999 210.1 22.0999 201.9 22.0999 192.7C22.0999 183.6 25.2999 178.9 29.7999 177.6C33.9999 176.4 38.8999 178.2 42.2999 180.2L58.3999 189.5C60.6999 190.8 62.4999 191.4 63.5999 191C64.4999 190.7 66.0999 189.4 66.0999 182.7C66.0999 178.3 64.6999 175.5 63.2999 173.5C61.6999 171.3 59.5999 169.5 58.2999 168.8Z" fill="white"/>
<path d="M30.5998 147.4C30.5998 158.8 23.8998 164.1 15.6998 159.4C7.4998 154.7 0.799805 141.6 0.799805 130.2C0.799805 118.8 7.4998 113.5 15.6998 118.2C23.8998 123 30.5998 136.1 30.5998 147.4Z" fill="#F2C94C"/>
<path d="M109.6 257.4C109.6 268.8 102.9 274.1 94.6998 269.4C86.4998 264.7 79.7998 251.6 79.7998 240.2C79.7998 228.8 86.4998 223.5 94.6998 228.2C102.9 233 109.6 246.1 109.6 257.4Z" fill="#F2C94C"/>
<path opacity="0.2" d="M215.9 605.1C221.9 608.6 226.7 616.9 226.7 623.9V654.4L246.9 666C252.9 669.5 257.7 677.8 257.7 684.8C257.7 691.7 252.8 694.5 246.9 691.1L226.7 679.5V710C226.7 716.9 221.8 719.7 215.9 716.3C209.9 712.8 205.1 704.5 205.1 697.5V667L184.9 655.4C178.9 651.9 174.1 643.6 174.1 636.6C174.1 629.7 179 626.9 184.9 630.3L205.1 641.9V611.4C205.1 604.4 209.9 601.6 215.9 605.1Z" fill="url(#paint9_linear)"/>
<defs>
<linearGradient id="paint0_linear" x1="793.414" y1="74.1185" x2="546.783" y2="501.566" gradientUnits="userSpaceOnUse">
<stop stop-color="white"/>
<stop offset="1" stop-color="white" stop-opacity="0"/>
</linearGradient>
<linearGradient id="paint1_linear" x1="674.826" y1="3.84681" x2="428.196" y2="431.295" gradientUnits="userSpaceOnUse">
<stop stop-color="white"/>
<stop offset="1" stop-color="white" stop-opacity="0"/>
</linearGradient>
<linearGradient id="paint2_linear" x1="753.414" y1="104.118" x2="506.783" y2="531.566" gradientUnits="userSpaceOnUse">
<stop stop-color="white"/>
<stop offset="1" stop-color="white" stop-opacity="0"/>
</linearGradient>
<linearGradient id="paint3_linear" x1="634.826" y1="33.8466" x2="388.195" y2="461.294" gradientUnits="userSpaceOnUse">
<stop stop-color="white"/>
<stop offset="1" stop-color="white" stop-opacity="0"/>
</linearGradient>
<linearGradient id="paint4_linear" x1="320.001" y1="113.653" x2="156.732" y2="396.517" gradientUnits="userSpaceOnUse">
<stop stop-color="white"/>
<stop offset="1" stop-color="white" stop-opacity="0"/>
</linearGradient>
<linearGradient id="paint5_linear" x1="204.636" y1="14.0357" x2="256.65" y2="161.513" gradientUnits="userSpaceOnUse">
<stop stop-color="white"/>
<stop offset="1" stop-color="white" stop-opacity="0"/>
</linearGradient>
<linearGradient id="paint6_linear" x1="529.993" y1="493.178" x2="366.725" y2="776.041" gradientUnits="userSpaceOnUse">
<stop stop-color="white"/>
<stop offset="1" stop-color="white" stop-opacity="0"/>
</linearGradient>
<linearGradient id="paint7_linear" x1="414.629" y1="393.561" x2="466.642" y2="541.038" gradientUnits="userSpaceOnUse">
<stop stop-color="white"/>
<stop offset="1" stop-color="white" stop-opacity="0"/>
</linearGradient>
<linearGradient id="paint8_linear" x1="261.532" y1="387.332" x2="107.881" y2="507.636" gradientUnits="userSpaceOnUse">
<stop stop-color="white"/>
<stop offset="1" stop-color="white" stop-opacity="0"/>
</linearGradient>
<linearGradient id="paint9_linear" x1="236.759" y1="644.063" x2="184.387" y2="685.368" gradientUnits="userSpaceOnUse">
<stop stop-color="white"/>
<stop offset="1" stop-color="white" stop-opacity="0"/>
</linearGradient>
</defs>
</svg>
