<svg width="719" height="926" viewBox="0 0 719 926" fill="none" xmlns="http://www.w3.org/2000/svg">
<path opacity="0.5" d="M382.3 284.097C319.4 247.397 267.4 281.697 258.2 360.897C256.6 374.597 267 392.697 279.7 400.097L484.9 519.897C497.6 527.297 508 521.297 506.4 505.697C497.2 415.997 445.1 320.797 382.3 284.097Z" fill="url(#paint0_linear)"/>
<path opacity="0.5" d="M452.4 181.297C452.4 235.997 420.8 261.797 381.8 238.997C342.8 216.197 311.2 153.497 311.2 98.7966C311.2 44.0966 342.8 18.2966 381.8 41.0966C420.8 63.8966 452.4 126.597 452.4 181.297Z" fill="url(#paint1_linear)"/>
<path opacity="0.07" d="M422.7 251.297C359.8 214.597 307.8 248.897 298.6 328.097C297 341.797 307.4 359.897 320.1 367.297L525.3 487.097C538 494.497 548.4 488.497 546.8 472.897C537.6 383.197 485.6 287.997 422.7 251.297Z" fill="url(#paint2_linear)"/>
<path opacity="0.07" d="M492.8 148.497C492.8 203.197 461.2 228.997 422.2 206.197C383.2 183.397 351.6 120.697 351.6 65.9966C351.6 11.2966 383.2 -14.5034 422.2 8.29655C461.2 31.0966 492.8 93.7966 492.8 148.497Z" fill="url(#paint3_linear)"/>
<path opacity="0.2" d="M628.7 560.197L451 457.597V550.197L628.7 652.797V560.197Z" fill="url(#paint4_linear)"/>
<path d="M487.1 509.497C487.1 517.097 482.6 520.697 477 517.497C471.4 514.297 466.9 505.497 466.9 497.897C466.9 490.297 471.4 486.697 477 489.897C482.6 493.097 487.1 501.897 487.1 509.497Z" fill="#F2C94C"/>
<path opacity="0.15" d="M496.5 506.197L549.9 537.097V548.197L496.4 517.297L496.5 506.197Z" fill="white"/>
<path opacity="0.15" d="M496.5 528.497L610.3 594.197V605.497L496.5 539.797V528.497Z" fill="white"/>
<path opacity="0.2" d="M267.7 453.197L90 350.697V443.297L267.7 545.897V453.197Z" fill="url(#paint5_linear)"/>
<path d="M126.1 402.497C126.1 410.097 121.6 413.697 116 410.497C110.4 407.297 105.9 398.497 105.9 390.897C105.9 383.297 110.4 379.697 116 382.897C121.6 386.097 126.1 394.897 126.1 402.497Z" fill="#F2994A"/>
<path opacity="0.15" d="M135.2 399.697L167.4 418.297V429.597L135.2 410.997V399.697Z" fill="white"/>
<path opacity="0.15" d="M135.5 421.997L249.3 487.697V498.997L135.5 433.297V421.997Z" fill="white"/>
<path opacity="0.3" d="M382.2 555.597L718.9 749.997L719 925.497L412 748.297L382.3 757.997L382.2 555.597Z" fill="url(#paint6_linear)"/>
<path d="M450.6 653.897C450.6 668.397 442.1 675.097 431.5 668.997C420.9 662.897 412.4 646.197 412.4 631.797C412.4 617.297 420.9 610.597 431.5 616.697C442 622.797 450.6 639.497 450.6 653.897Z" fill="#F2C94C"/>
<path opacity="0.15" d="M468.8 648.297L542.6 690.897V706.297L468.8 663.697V648.297Z" fill="white"/>
<path opacity="0.15" d="M468.8 679.197L689.2 806.396V821.797L468.8 694.596V679.197Z" fill="white"/>
<path opacity="0.15" d="M468.8 710.097L641.1 809.597V824.997L468.8 725.497V710.097Z" fill="white"/>
<path opacity="0.3" d="M336.7 605.997L0 411.697L0.1 587.197L307.1 764.397L336.8 808.397L336.7 605.997Z" fill="url(#paint7_linear)"/>
<path d="M268.3 625.297C268.3 639.797 276.9 656.397 287.4 662.497C298 668.597 306.5 661.797 306.5 647.297C306.5 632.797 297.9 616.197 287.4 610.097C276.9 604.097 268.3 610.897 268.3 625.297Z" fill="#F2994A"/>
<path opacity="0.15" d="M250.1 598.797L176.3 556.197V571.596L250.1 614.197V598.797Z" fill="white"/>
<path opacity="0.15" d="M250.2 629.597L29.7998 502.397V517.797L250.1 644.997L250.2 629.597Z" fill="white"/>
<path opacity="0.15" d="M250.2 660.497L77.8999 560.997V576.397L250.2 675.897V660.497Z" fill="white"/>
<path opacity="0.2" d="M140.2 715.297C146.2 718.697 151 727.097 151 734.097V764.597L171.2 776.197C177.2 779.597 182 787.997 182 794.897C182 801.797 177.2 804.597 171.2 801.197L151 789.497V819.997C151 826.897 146.2 829.697 140.2 826.297C134.2 822.897 129.4 814.497 129.4 807.597V777.097L109.2 765.497C103.2 762.097 98.3999 753.697 98.3999 746.797C98.3999 739.897 103.2 737.097 109.2 740.497L129.4 752.097V721.597C129.3 714.597 134.2 711.797 140.2 715.297Z" fill="url(#paint8_linear)"/>
<path opacity="0.2" d="M574.7 324.597L602.5 379.197C606.3 386.697 605.7 394.197 601.1 395.997C596.5 397.797 589.7 393.097 585.9 385.597L585.6 384.897V445.497C585.6 452.397 580.8 455.197 574.8 451.797C568.8 448.297 564 439.997 564 433.097V372.497L563.7 372.797C559.9 375.897 553 372.697 548.5 365.597C543.9 358.497 543.3 350.297 547.1 347.197L574.7 324.597Z" fill="url(#paint9_linear)"/>
<path opacity="0.2" d="M336.7 422.207L293.9 397.507V383.107L336.7 407.807C340.2 409.807 345.3 413.907 349.6 420.207C354.3 426.907 357.6 435.407 357.6 444.607C357.6 454.807 355 460.607 350.1 462.207C345.5 463.707 340 461.107 336.7 459.207L319.1 449.007L319 448.907C317.5 448.007 315.1 447.107 313.2 447.707C311.6 448.207 309.9 449.707 309.9 455.407C309.9 461.107 311.7 464.507 313.1 466.607C314.9 469.207 317.3 471.007 318.8 471.807L319 471.907L372.8 503.007V517.407L319.3 486.507C315.6 484.607 310.3 480.507 305.7 474.107C300.7 467.007 297.3 458.107 297.3 448.207C297.3 438.307 300.7 433.307 305.6 431.907C310.2 430.607 315.5 432.507 319.2 434.707L336.6 444.807C339.1 446.307 341 446.907 342.3 446.507C343.3 446.207 345.1 444.807 345.1 437.507C345.1 432.707 343.6 429.607 342.1 427.607C340.4 424.907 338.2 423.007 336.7 422.207Z" fill="white"/>
<path d="M301.8 394.407C301.8 407.307 294.2 413.407 284.9 408.107C275.6 402.707 268 387.907 268 374.907C268 362.007 275.6 355.907 284.9 361.207C294.2 366.607 301.8 381.507 301.8 394.407Z" fill="#F2994A"/>
<path d="M394.8 522.407C394.8 535.307 387.2 541.407 377.9 536.107C368.6 530.707 361 515.907 361 502.907C361 490.007 368.6 483.907 377.9 489.207C387.2 494.607 394.8 509.507 394.8 522.407Z" fill="#F2C94C"/>
<defs>
<linearGradient id="paint0_linear" x1="641.776" y1="224.248" x2="386.331" y2="410.588" gradientUnits="userSpaceOnUse">
<stop stop-color="white"/>
<stop offset="1" stop-color="white" stop-opacity="0"/>
</linearGradient>
<linearGradient id="paint1_linear" x1="511.597" y1="45.3823" x2="256.153" y2="231.721" gradientUnits="userSpaceOnUse">
<stop stop-color="white"/>
<stop offset="1" stop-color="white" stop-opacity="0"/>
</linearGradient>
<linearGradient id="paint2_linear" x1="682.193" y1="191.437" x2="426.748" y2="377.776" gradientUnits="userSpaceOnUse">
<stop stop-color="white"/>
<stop offset="1" stop-color="white" stop-opacity="0"/>
</linearGradient>
<linearGradient id="paint3_linear" x1="552.014" y1="12.57" x2="296.57" y2="198.909" gradientUnits="userSpaceOnUse">
<stop stop-color="white"/>
<stop offset="1" stop-color="white" stop-opacity="0"/>
</linearGradient>
<linearGradient id="paint4_linear" x1="559.877" y1="520.483" x2="519.793" y2="589.929" gradientUnits="userSpaceOnUse">
<stop stop-color="white"/>
<stop offset="1" stop-color="white" stop-opacity="0"/>
</linearGradient>
<linearGradient id="paint5_linear" x1="198.878" y1="413.496" x2="158.794" y2="482.942" gradientUnits="userSpaceOnUse">
<stop stop-color="white"/>
<stop offset="1" stop-color="white" stop-opacity="0"/>
</linearGradient>
<linearGradient id="paint6_linear" x1="526.821" y1="561.309" x2="570.355" y2="914.407" gradientUnits="userSpaceOnUse">
<stop stop-color="white"/>
<stop offset="1" stop-color="white" stop-opacity="0"/>
</linearGradient>
<linearGradient id="paint7_linear" x1="263.281" y1="535.718" x2="89.4079" y2="671.856" gradientUnits="userSpaceOnUse">
<stop stop-color="white"/>
<stop offset="1" stop-color="white" stop-opacity="0"/>
</linearGradient>
<linearGradient id="paint8_linear" x1="161.055" y1="754.252" x2="108.697" y2="795.572" gradientUnits="userSpaceOnUse">
<stop stop-color="white"/>
<stop offset="1" stop-color="white" stop-opacity="0"/>
</linearGradient>
<linearGradient id="paint9_linear" x1="594.461" y1="379.676" x2="543.74" y2="407.95" gradientUnits="userSpaceOnUse">
<stop stop-color="white"/>
<stop offset="1" stop-color="white" stop-opacity="0"/>
</linearGradient>
</defs>
</svg>
